<svg width="233" height="34" viewBox="0 0 233 34" fill="none" xmlns="http://www.w3.org/2000/svg">
<path d="M21.4939 11.5761L18.4292 1.48545C17.8245 -0.49515 15.0309 -0.49515 14.4471 1.48545L11.3615 11.5761H2.084C0.0617057 11.5761 -0.77223 14.1821 0.874794 15.3496L8.46362 20.7702L5.48229 30.3813C4.87769 32.3202 7.12932 33.8839 8.73464 32.6538L16.4277 26.8163L24.1208 32.6747C25.7261 33.9047 27.9777 32.3411 27.3731 30.4022L24.3918 20.7911L31.9806 15.3705C33.6276 14.1821 32.7937 11.5969 30.7714 11.5969H21.4939V11.5761Z" fill="#FFB74D"/>
<path d="M71.53 11.5761L68.4653 1.48545C67.8607 -0.49515 65.067 -0.49515 64.4833 1.48545L61.3977 11.5761H52.1202C50.0979 11.5761 49.2639 14.1821 50.911 15.3496L58.4998 20.7702L55.5185 30.3813C54.9139 32.3202 57.1655 33.8839 58.7708 32.6538L66.4639 26.8163L74.1569 32.6747C75.7623 33.9047 78.0139 32.3411 77.4093 30.4022L74.428 20.7911L82.0168 15.3705C83.6638 14.1821 82.8299 11.5969 80.8076 11.5969H71.53V11.5761Z" fill="#FFB74D"/>
<path d="M121.566 11.5761L118.502 1.48545C117.897 -0.49515 115.103 -0.49515 114.519 1.48545L111.434 11.5761H102.156C100.134 11.5761 99.3001 14.1821 100.947 15.3496L108.536 20.7702L105.555 30.3813C104.95 32.3202 107.202 33.8839 108.807 32.6538L116.5 26.8163L124.193 32.6747C125.798 33.9047 128.05 32.3411 127.445 30.4022L124.464 20.7911L132.053 15.3705C133.7 14.1821 132.866 11.5969 130.844 11.5969H121.566V11.5761Z" fill="#FFB74D"/>
<path d="M171.602 11.5761L168.538 1.48545C167.933 -0.49515 165.139 -0.49515 164.556 1.48545L161.47 11.5761H152.193C150.17 11.5761 149.336 14.1821 150.983 15.3496L158.572 20.7702L155.591 30.3813C154.986 32.3202 157.238 33.8839 158.843 32.6538L166.536 26.8163L174.229 32.6747C175.835 33.9047 178.086 32.3411 177.482 30.4022L174.5 20.7911L182.089 15.3705C183.736 14.1821 182.902 11.5969 180.88 11.5969H171.602V11.5761Z" fill="#FFB74D"/>
<path d="M221.639 11.5761L218.574 1.48545C217.969 -0.49515 215.176 -0.49515 214.592 1.48545L211.506 11.5761H202.229C200.206 11.5761 199.372 14.1821 201.019 15.3496L208.608 20.7702L205.627 30.3813C205.022 32.3202 207.274 33.8839 208.879 32.6538L216.572 26.8163L224.265 32.6747C225.871 33.9047 228.122 32.3411 227.518 30.4022L224.537 20.7911L232.125 15.3705C233.772 14.1821 232.938 11.5969 230.916 11.5969H221.639V11.5761Z" fill="#FFB74D"/>
</svg>
