<svg width="233" height="35" viewBox="0 0 233 35" fill="none" xmlns="http://www.w3.org/2000/svg">
<path d="M21.4939 12.0019L18.4291 1.5401C17.8245 -0.513366 15.0309 -0.513366 14.4471 1.5401L11.3615 12.0019H2.084C0.0617057 12.0019 -0.77223 14.7039 0.874793 15.9143L8.46361 21.5343L5.48229 31.499C4.87769 33.5093 7.12931 35.1304 8.73464 33.8551L16.4277 27.8028L24.1208 33.8767C25.7261 35.152 27.9777 33.5309 27.3731 31.5206L24.3918 21.556L31.9806 15.9359C33.6276 14.7039 32.7937 12.0236 30.7714 12.0236H21.4939V12.0019Z" fill="#424242"/>
<path d="M71.53 12.0019L68.4653 1.5401C67.8607 -0.513366 65.067 -0.513366 64.4833 1.5401L61.3977 12.0019H52.1201C50.0979 12.0019 49.2639 14.7039 50.9109 15.9143L58.4998 21.5343L55.5184 31.499C54.9138 33.5093 57.1655 35.1304 58.7708 33.8551L66.4638 27.8028L74.1569 33.8767C75.7622 35.152 78.0139 33.5309 77.4093 31.5206L74.4279 21.556L82.0167 15.9359C83.6638 14.7039 82.8298 12.0236 80.8075 12.0236H71.53V12.0019Z" fill="#424242"/>
<path d="M121.566 12.0019L118.501 1.5401C117.897 -0.513366 115.103 -0.513366 114.519 1.5401L111.434 12.0019H102.156C100.134 12.0019 99.3001 14.7039 100.947 15.9143L108.536 21.5343L105.555 31.499C104.95 33.5093 107.202 35.1304 108.807 33.8551L116.5 27.8028L124.193 33.8767C125.798 35.152 128.05 33.5309 127.445 31.5206L124.464 21.556L132.053 15.9359C133.7 14.7039 132.866 12.0236 130.844 12.0236H121.566V12.0019Z" fill="#424242"/>
<path d="M171.602 12.0019L168.538 1.5401C167.933 -0.513366 165.139 -0.513366 164.556 1.5401L161.47 12.0019H152.192C150.17 12.0019 149.336 14.7039 150.983 15.9143L158.572 21.5343L155.591 31.499C154.986 33.5093 157.238 35.1304 158.843 33.8551L166.536 27.8028L174.229 33.8767C175.835 35.152 178.086 33.5309 177.482 31.5206L174.5 21.556L182.089 15.9359C183.736 14.7039 182.902 12.0236 180.88 12.0236H171.602V12.0019Z" fill="#424242"/>
<path d="M221.638 12.0019L218.574 1.5401C217.969 -0.513366 215.175 -0.513366 214.592 1.5401L211.506 12.0019H202.229C200.206 12.0019 199.372 14.7039 201.019 15.9143L208.608 21.5343L205.627 31.499C205.022 33.5093 207.274 35.1304 208.879 33.8551L216.572 27.8028L224.265 33.8767C225.871 35.152 228.122 33.5309 227.518 31.5206L224.536 21.556L232.125 15.9359C233.772 14.7039 232.938 12.0236 230.916 12.0236H221.638V12.0019Z" fill="#424242"/>
</svg>
